<?xml version="1.0" encoding="utf-8"?>
<!-- Generator: Adobe Illustrator 23.1.0, SVG Export Plug-In . SVG Version: 6.00 Build 0)  -->
<svg version="1.1" id="Capa_1" xmlns="http://www.w3.org/2000/svg" xmlns:xlink="http://www.w3.org/1999/xlink" x="0px" y="0px"
	 viewBox="0 0 30 30" style="enable-background:new 0 0 30 30;" xml:space="preserve">
<style type="text/css">
	.st0{fill:#03913B;}
	.st1{fill:#D50628;}
	.st2{fill:#04478B;}
</style>
<g>
	<g>
		<path class="st0" d="M13,12.7c-1.7-6.4-5.3-9.1-9-6.9c-2.4,1.5-4,5-4,8.8c0,3.8,1.7,7.3,4.1,8.7c2.5,1.4,5.2,0.6,7.1-2.2
			c0.6-0.9,1-1.9,1.5-2.9C13,16.4,13.2,14.5,13,12.7z M6.5,17.7c-2,0.5-2.4-1.7-2.4-3.6c0-2,1.4-2.9,2.5-2.9c1,0,2.3,0.9,2.3,2.9
			C8.8,16.1,8.4,18.1,6.5,17.7z M8.4,6.9c1.2,0.7,2.5,1.5,2.7,3.6c0.1,1.1-0.6,1.6-1.2,1.3c-1.1-0.7-2.6-1.2-2.7-3.4
			C7.1,7.4,7.7,6.9,8.4,6.9z M12,15.7c-0.2,1.4-0.2,3.4-1.6,3.9c-0.8,0.2-1.2-1-1-2c0.3-1.6,0.1-3.7,1.7-4.1
			C12,13.2,12,14.5,12,15.7z M3.1,11.9C2.4,11.8,2,11.4,2,10.4c0-1.3,2-3.7,2.9-3.5c0.7,0.1,1.2,0.9,1,1.8
			C5.5,10.7,4.2,11.3,3.1,11.9z M1,15.7c0-1.1,0-2.4,0.9-2.2c1.5,0.3,1.4,2.5,1.7,4.1c0.2,1-0.1,2.2-0.9,2.1
			C1.2,19.2,1.3,17.2,1,15.7z M6.6,19.1c0.7,0.2,2-0.4,2,1.5c0.1,1.8-1.1,1.9-2,1.9c-1,0-2.2,0.1-2.3-1.8
			C4.4,18.8,5.7,19.3,6.6,19.1z"/>
		<path class="st1" d="M23.8,14.7c0-1.9-0.1-3.7,1-4.5c1.2-0.9,2.1-0.3,2.9,1.3c0.3,0.7,1.2,0.7,1.7,0c0.6-0.8,0.1-1.5-0.3-2.2
			c-1.2-2-2.5-3-4.4-2c-1.7,0.9-2.6,2.5-3,4.9c-0.9,6,1.3,10,5.1,9.5c2.6-0.4,3.8-3.4,2.9-6.9c-0.3-1.2-0.9-1-1.5-0.9
			c-0.8,0.1-1.7-0.5-2.3,0.5c-0.3,0.5-0.1,1.4,0.5,1.5c1.4,0.2,1.6,1.6,0.9,2.7c-0.6,1.1-1.6,0.7-2.4-0.2
			C23.8,17.3,23.8,15.8,23.8,14.7z"/>
		<path class="st2" d="M20.3,9.9c0.2-1,0.4-2.2-0.5-2.4c-1.9-0.4-3.7-1.8-5.6-0.2c0,4.8,0.1,9.6,0.1,14.4c0.6,0,1.2,0,1.8,0
			c0.1-6,0.1-6,3.7-6c0.2-0.9,0.3-1.7,0-2.6c-0.7,0-1.4,0-2,0c-0.8,0-1.5-0.1-1.5-1.7c0-1.6,0.8-1.6,1.6-1.6
			C18.6,9.8,19.4,9.8,20.3,9.9z"/>
	</g>
</g>
</svg>
